Coordinates
version=1
nRows=30
nColumns=19
inDegrees=yes

Units are S.I. units (second, meters, Newtons, ...)
If the header above contains a line with 'inDegrees', this indicates whether rotational values are in degrees (yes) or radians (no).

endheader
time	pelvis_tilt	pelvis_list	pelvis_rotation	pelvis_tx	pelvis_ty	pelvis_tz	hip_flexion_r	hip_adduction_r	hip_rotation_r	knee_angle_r	knee_angle_r_beta	ankle_angle_r	hip_flexion_l	hip_adduction_l	hip_rotation_l	knee_angle_l	knee_angle_l_beta	ankle_angle_l
     13.52666667	      0.73770449	     11.14634643	      7.54411721	      2.37472097	      0.97797331	      1.01507812	    -18.14923676	    -11.29753626	    -11.24150898	     73.43121249	      1.28161643	     -3.98082442	     21.12316783	     11.69637277	    -11.71696008	     17.67034084	      0.30840563	     -3.05504137
     13.53333333	      1.06957381	     11.63746541	      7.66512146	      2.37376301	      0.97482118	      1.01387023	    -17.05712539	    -12.05174225	    -11.02460080	     77.50666020	      1.35274641	     -3.29023592	     20.26884231	     12.37613187	    -12.21628566	     18.03367779	      0.31474705	     -2.97366731
     13.54000000	      1.32952348	     12.11244014	      7.86586590	      2.37265273	      0.97134160	      1.01273086	    -15.79029379	    -12.79979747	    -10.82804749	     81.45005657	      1.42157166	     -2.56730769	     19.57185749	     12.97663366	    -12.68583192	     18.98985863	      0.33143556	     -2.47583250
     13.54666667	      0.99284912	     12.32782043	      8.07841818	      2.37138683	      0.96716152	      1.01180765	    -13.57738563	    -13.33184466	    -10.28420072	     85.38317248	      1.49021749	     -2.01016976	     19.61794186	     13.26237500	    -13.16754765	     20.51332581	      0.35802508	     -1.58900257
     13.55333333	      1.39856843	     12.81755952	      8.38467643	      2.37013723	      0.96352739	      1.01108869	    -12.27527963	    -14.02538203	    -10.08807916	     88.93147666	      1.55214708	     -1.47257721	     18.76570752	     13.72252211	    -13.36678956	     22.34597247	      0.39001079	     -0.24696331
     13.56000000	      0.67609652	     12.78995960	      8.56777414	      2.36852053	      0.95877411	      1.01077603	     -9.20161465	    -14.31072224	     -9.16218528	     92.59338317	      1.61605940	     -1.10119495	     19.29545649	     13.58052677	    -13.77202668	     24.69155321	      0.43094890	      1.42424791
     13.56666667	      0.44508202	     12.81334573	      8.84353682	      2.36686601	      0.95452524	      1.01074792	     -6.64648007	    -14.51910443	     -8.45585474	     95.87641673	      1.67335915	     -0.83520959	     19.16227408	     13.43668369	    -13.72419313	     27.15053523	      0.47386623	      3.53583660
     13.57333333	      1.00134341	     13.12019332	      9.08573945	      2.36532457	      0.95124302	      1.01088321	     -5.00630904	    -14.95259992	     -7.95616430	     98.70782872	      1.72277661	     -0.65371380	     17.88341247	     13.51065258	    -13.34069222	     29.37170226	      0.51263291	      6.00044514
     13.58000000	      0.19309736	     12.47675741	      9.16255473	      2.36309344	      0.94682450	      1.01158173	     -1.12395291	    -14.38708556	     -6.63525258	    101.60541999	      1.77334912	     -0.61616077	     18.33776450	     12.60144006	    -12.99854193	     31.98289875	      0.55820689	      8.45508265
     13.58666667	      0.21063740	     12.17181698	      9.22657294	      2.36104384	      0.94356255	      1.01233607	      1.73420815	    -14.11325891	     -5.65187225	    103.97838747	      1.81476521	     -0.56341183	     17.52727479	     11.99685187	    -12.34398849	     34.11264056	      0.59537789	     11.03339041
     13.59333333	      0.19550726	     11.81463069	      9.20871155	      2.35889362	      0.94065454	      1.01320194	      4.78324652	    -13.77608033	     -4.59615247	    106.02648344	      1.85051123	     -0.50513961	     16.55788176	     11.33823947	    -11.60099636	     35.90815264	      0.62671549	     13.51978439
     13.60000000	      0.38507766	     11.40649706	      9.07099804	      2.35672463	      0.93844510	      1.01413726	      7.70596067	    -13.33277194	     -3.53397426	    107.65316807	      1.87890223	     -0.39232004	     15.14584373	     10.59131992	    -10.82002056	     37.28850343	      0.65080716	     15.82299987
     13.60666667	      0.59043718	     10.95292282	      8.85198736	      2.35457858	      0.93677469	      1.01500367	     10.68377723	    -12.82777895	     -2.46828948	    108.87998966	      1.90031431	     -0.24924850	     13.49669295	      9.79040166	    -10.09483718	     38.24204479	      0.66744959	     17.82655781
     13.61333333	      1.08068764	     10.61057394	      8.66717791	      2.35267564	      0.93600217	      1.01554282	     13.22576481	    -12.49605510	     -1.63106932	    109.60725343	      1.91300746	      0.04592157	     11.22445439	      9.14025480	     -9.23337018	     38.62006949	      0.67404737	     19.51354997
     13.62000000	      1.49663863	     10.00288135	      8.15315432	      2.35074228	      0.93564353	      1.01628098	     16.00830178	    -11.68831692	     -0.52429163	    109.95442347	      1.91906672	      0.34938112	      8.94991512	      8.12422929	     -8.87999067	     38.71418418	      0.67568998	     20.67271471
     13.62666667	      1.69844792	      9.53563616	      7.98185015	      2.34918865	      0.93570155	      1.01626701	     18.75118640	    -11.27658584	      0.13188590	    109.84503831	      1.91715759	      0.82151953	      6.61734147	      7.45584029	     -8.11031438	     38.30216301	      0.66849886	     21.33190084
     13.63333333	      2.06731529	      8.89021404	      7.28473921	      2.34791012	      0.93633619	      1.01659557	     21.37339434	    -10.41780615	      1.11604608	    109.33988789	      1.90834105	      1.29168205	      3.97388701	      6.47813577	     -8.15368677	     37.54007467	      0.65519790	     21.54794675
     13.64000000	      2.40581394	      8.30677502	      6.84137685	      2.34710670	      0.93753874	      1.01632709	     23.71508125	     -9.80210343	      1.67721146	    108.37424177	      1.89148734	      1.88959093	      1.15114433	      5.70127562	     -7.92578395	     36.37148486	      0.63480216	     21.11198453
     13.64666667	      2.73606509	      7.65327211	      6.53742236	      2.34680467	      0.93924114	      1.01573969	     25.79309341	     -9.21762338	      1.89685096	    106.97439235	      1.86705536	      2.55200287	     -1.79771363	      4.91907945	     -7.58003031	     34.89812025	      0.60908710	     20.11244803
     13.65333333	      2.18694632	      6.91934385	      6.50373743	      2.34692634	      0.94041622	      1.01477252	     28.64279708	     -8.77257106	      1.83319520	    105.29874790	      1.83780985	      3.19113019	     -3.76998106	      4.16600212	     -7.14100659	     33.42763205	      0.58342224	     18.55946918
     13.66000000	      2.69007650	      6.08903545	      6.13219659	      2.34771070	      0.94318065	      1.01406624	     30.04588369	     -8.03390935	      1.66105389	    103.10257581	      1.79947942	      3.86004210	     -7.08800270	      3.20816780	     -7.11169963	     31.43103814	      0.54857510	     16.32617877
     13.66666667	      2.33160565	      5.20675465	      5.99939107	      2.34897019	      0.94533878	      1.01318483	     32.17782738	     -7.43923964	      1.23986110	    100.66841335	      1.75699527	      4.47503233	     -9.38448567	      2.27588297	     -7.04324000	     29.53635244	      0.51550660	     13.58450743
     13.67333333	      1.99155758	      4.26949421	      6.04655839	      2.35075341	      0.94786131	      1.01216140	     33.97380981	     -6.96482709	      0.43033258	     97.88493552	      1.70841441	      5.07572542	    -11.66300099	      1.23927181	     -6.92413890	     27.57658100	      0.48130213	     10.30949064
     13.68000000	      1.35698191	      3.29482130	      6.09948250	      2.35299898	      0.95031469	      1.01119864	     35.86752051	     -6.51956687	     -0.51596420	     94.82507631	      1.65500980	      5.57350259	    -13.53536706	      0.16654118	     -7.00768884	     25.66018163	      0.44785466	      6.64256414
     13.68666667	     -0.08804296	      2.51325876	      6.34037142	      2.35556798	      0.95202434	      1.01032068	     38.43227820	     -6.43037878	     -1.51538125	     91.60692137	      1.59884240	      6.03923696	    -14.30292463	     -0.71248393	     -7.00945507	     24.08425631	      0.42034957	      2.59568105
     13.69333333	      0.02904503	      1.35026777	      6.40491739	      2.35864844	      0.95560623	      1.00939509	     38.89902249	     -5.88744818	     -3.01494983	     87.86746790	      1.53357662	      6.52744061	    -16.83946401	     -2.12104496	     -7.49393639	     22.11992365	      0.38606550	     -1.65401211
     13.70000000	     -0.65055120	      0.45753986	      6.57279514	      2.36179265	      0.95828145	      1.00852958	     40.07527916	     -5.74074263	     -4.46437082	     84.04749989	      1.46690560	      6.90536289	    -18.24098065	     -3.22283512	     -7.96141678	     20.60234990	      0.35957884	     -5.92851233
     13.70666667	     -1.40929637	     -0.33350318	      6.61106323	      2.36503833	      0.96073430	      1.00783388	     41.15592871	     -5.62449691	     -5.86534355	     80.06264905	      1.39735683	      7.19513746	    -19.38412938	     -4.19818506	     -8.72746612	     19.36436117	      0.33797186	    -10.05766351
     13.71333333	     -2.11753059	     -0.99388390	      6.54823984	      2.36827266	      0.96305525	      1.00724514	     41.98665840	     -5.56321694	     -7.25944529	     75.92585762	      1.32515620	      7.39974771	    -20.39944785	     -5.02168917	     -9.67356386	     18.44659213	      0.32195377	    -13.88183112
     13.72000000	     -2.85503254	     -1.55374035	      6.28295130	      2.37132791	      0.96505634	      1.00696173	     42.70554181	     -5.40747433	     -8.53162616	     71.67153336	      1.25090424	      7.47528369	    -21.16595544	     -5.69554692	    -10.88422728	     17.97484788	      0.31372028	    -17.22933229
